<svg xmlns="http://www.w3.org/2000/svg" xmlns:xlink="http://www.w3.org/1999/xlink" width="113.16" height="46.18" viewBox="0 0 113.16 46.18"><defs><style>.a{fill:url(#a);}.b{fill:url(#b);}.c{fill:url(#c);}.d{fill:url(#d);}.e{fill:url(#e);}.f{fill:url(#f);}.g{fill:url(#g);}.h{fill:url(#h);}.i{fill:url(#i);}.j{fill:url(#j);}</style><linearGradient id="a" x1="3.72" y1="47.03" x2="127.57" y2="48.21" gradientUnits="userSpaceOnUse"><stop offset="0.06" stop-color="#45e9de"/><stop offset="0.08" stop-color="#45d9de"/><stop offset="0.1" stop-color="#45cede"/><stop offset="0.13" stop-color="#45c7de"/><stop offset="0.21" stop-color="#45c5de"/><stop offset="0.36" stop-color="#43b0de"/><stop offset="0.38" stop-color="#43acde"/><stop offset="0.55" stop-color="#239ed8"/><stop offset="0.58" stop-color="#1e9cd7"/><stop offset="0.77" stop-color="#0278c0"/><stop offset="0.99" stop-color="#005b97"/></linearGradient><linearGradient id="b" x1="3.72" y1="46.93" x2="127.57" y2="48.1" xlink:href="#a"/><linearGradient id="c" x1="3.72" y1="46.79" x2="127.57" y2="47.97" xlink:href="#a"/><linearGradient id="d" x1="3.72" y1="46.69" x2="127.57" y2="47.86" xlink:href="#a"/><linearGradient id="e" x1="3.72" y1="46.52" x2="127.57" y2="47.69" xlink:href="#a"/><linearGradient id="f" x1="3.72" y1="46.4" x2="127.57" y2="47.57" xlink:href="#a"/><linearGradient id="g" x1="3.73" y1="46.27" x2="127.57" y2="47.45" xlink:href="#a"/><linearGradient id="h" x1="3.73" y1="46.1" x2="127.58" y2="47.27" xlink:href="#a"/><linearGradient id="i" x1="27.43" y1="18.82" x2="101.58" y2="21.37" xlink:href="#a"/><linearGradient id="j" x1="27.46" y1="17.88" x2="101.62" y2="20.43" xlink:href="#a"/></defs><title>Logo</title><path class="a" d="M7.12,39H18.65v2.17H7.12Zm4.62,1.33H14v15H11.74Z" transform="translate(-7.12 -9.29)"/><path class="b" d="M22.84,54.73a5.14,5.14,0,0,1-2-2.11,6.7,6.7,0,0,1-.71-3.17V44.83a6.7,6.7,0,0,1,.71-3.17,5.14,5.14,0,0,1,2-2.11,6.47,6.47,0,0,1,6,0,5.14,5.14,0,0,1,2,2.11,6.7,6.7,0,0,1,.71,3.17v4.62a6.7,6.7,0,0,1-.71,3.17,5.14,5.14,0,0,1-2,2.11,6.47,6.47,0,0,1-6,0Zm4.79-2a3,3,0,0,0,1.19-1.29,4.26,4.26,0,0,0,.42-1.94V44.75a4.26,4.26,0,0,0-.42-1.94,3,3,0,0,0-1.19-1.29,3.49,3.49,0,0,0-1.78-.46,3.44,3.44,0,0,0-1.78.46,3,3,0,0,0-1.19,1.29,4.14,4.14,0,0,0-.43,1.94v4.78a4.14,4.14,0,0,0,.43,1.94,3,3,0,0,0,1.19,1.29,3.44,3.44,0,0,0,1.78.45A3.49,3.49,0,0,0,27.63,52.76Z" transform="translate(-7.12 -9.29)"/><path class="c" d="M46,46.51v2.85a7,7,0,0,1-.7,3.21,5.13,5.13,0,0,1-2,2.14,5.77,5.77,0,0,1-3,.76,6.29,6.29,0,0,1-3-.71,5.06,5.06,0,0,1-2-2,6.11,6.11,0,0,1-.72-3V44.9a7,7,0,0,1,.71-3.2,5.13,5.13,0,0,1,2-2.14,5.86,5.86,0,0,1,3-.75,5.64,5.64,0,0,1,2.59.6,5.49,5.49,0,0,1,2,1.7,6.36,6.36,0,0,1,1.08,2.55H43.39a3.58,3.58,0,0,0-.69-1.41,3.36,3.36,0,0,0-1.13-.9A3.1,3.1,0,0,0,40.22,41a3.26,3.26,0,0,0-1.77.48,3.2,3.2,0,0,0-1.18,1.36,4.58,4.58,0,0,0-.42,2v4.82a3.77,3.77,0,0,0,.43,1.85,2.93,2.93,0,0,0,1.21,1.23,3.64,3.64,0,0,0,1.8.44,3.34,3.34,0,0,0,1.77-.46,3,3,0,0,0,1.18-1.32,4.63,4.63,0,0,0,.42-2.05V48.7H40.34V46.51Z" transform="translate(-7.12 -9.29)"/><path class="d" d="M53.48,39h2l6,16.32H59L54.46,42.13,49.93,55.3H47.46ZM50.24,49.54h8.59v2.18H50.24Z" transform="translate(-7.12 -9.29)"/><path class="e" d="M63.93,39h2.29V55.3H63.93Zm1.12,0H74.2v2.17H65.05Zm0,7.27H73v2.18H65.05Z" transform="translate(-7.12 -9.29)"/><path class="f" d="M79.18,54.73a5.2,5.2,0,0,1-2-2.11,6.83,6.83,0,0,1-.71-3.17V44.83a6.83,6.83,0,0,1,.71-3.17,5.2,5.2,0,0,1,2-2.11,6.49,6.49,0,0,1,6,0,5.11,5.11,0,0,1,2,2.11,6.71,6.71,0,0,1,.72,3.17v4.62a6.71,6.71,0,0,1-.72,3.17,5.11,5.11,0,0,1-2,2.11,6.49,6.49,0,0,1-6,0Zm4.79-2a3,3,0,0,0,1.19-1.29,4.26,4.26,0,0,0,.42-1.94V44.75a4.26,4.26,0,0,0-.42-1.94A3,3,0,0,0,84,41.52a3.67,3.67,0,0,0-3.56,0,3,3,0,0,0-1.19,1.29,4.26,4.26,0,0,0-.42,1.94v4.78a4.26,4.26,0,0,0,.42,1.94,3,3,0,0,0,1.19,1.29,3.75,3.75,0,0,0,3.56,0Z" transform="translate(-7.12 -9.29)"/><path class="g" d="M91.41,39H93.7V55.3H91.41Zm1,7.26H98a2.11,2.11,0,0,0,1.15-.32,2.08,2.08,0,0,0,.79-.89,3.1,3.1,0,0,0,.27-1.33,3.13,3.13,0,0,0-.27-1.33A2.08,2.08,0,0,0,98,41.14H92.41V39h5.48a5.15,5.15,0,0,1,2.49.59A4.18,4.18,0,0,1,102,41.2a5.11,5.11,0,0,1,.59,2.48,5,5,0,0,1-.6,2.48,4.12,4.12,0,0,1-1.66,1.65,5.14,5.14,0,0,1-2.48.59H92.41Zm4.45,1.67,2.27-.51,4.18,7.92H100.6Z" transform="translate(-7.12 -9.29)"/><path class="h" d="M118.14,39h2.14V55.3h-2.23V43.07l.11.72-4,9.25h-1.6l-4-9,.12-1V55.3H106.4V39h2.15l4.79,10.78Z" transform="translate(-7.12 -9.29)"/><path class="i" d="M57.59,21.27a10.38,10.38,0,0,0,2,3.6,9.85,9.85,0,0,0,3.27,2.5l-1.61,2.41a14.83,14.83,0,0,1-2.75-2.23,12.62,12.62,0,0,1-2-2.71,13,13,0,0,1-4.65,5l-1.63-2.32V29.6H47.67V26.4c-1.19.23-2.65.48-4.37.74l-.58.08-.34.06-.18-2.67,1.24-.14V12.6h-.71V10H51.1V12.6h-.87V23.37l1.24-.28,0,2.48a9.15,9.15,0,0,1-1.28.3v1.57a9.83,9.83,0,0,0,3.18-2.67,7.72,7.72,0,0,0,1.37-3.5H50.89v-2.8h4V15.82H51.4V13H53l-.89-3.17,2.94-.19L55.77,13h1.38l.92-3.36,2.9.19L60,13h1.65v2.78h-4v2.65h4.42v2.8Zm-9.92-6.53V12.6H45.83v2.14Zm0,2.49H45.83v2.06h1.84Zm-1.84,6.92,1.84-.3V21.76H45.83Z" transform="translate(-7.12 -9.29)"/><path class="j" d="M76.61,23.76a1.68,1.68,0,0,0,.72-.2.57.57,0,0,0,.27-.45l0-.34H71.8V26A1.58,1.58,0,0,0,72,27a1.42,1.42,0,0,0,1,.26c1.31,0,2.31.05,3,.05s1.64,0,3-.05a3.64,3.64,0,0,0,.93-.11.72.72,0,0,0,.44-.34,2.76,2.76,0,0,0,.29-.77,5.4,5.4,0,0,0,.16-1.31l2.74.88a9.63,9.63,0,0,1-.26,1.45,5.09,5.09,0,0,1-.58,1.57,1.82,1.82,0,0,1-1,.75,7.28,7.28,0,0,1-1.93.28c-.86,0-2.14,0-3.84,0s-3,0-3.87,0a5.59,5.59,0,0,1-1.84-.34,1.77,1.77,0,0,1-.95-.93A4.54,4.54,0,0,1,69,26.59v-3c-.67.52-1.58,1.15-2.71,1.87l-1.84-2.37a22.26,22.26,0,0,0,5.38-4H65.61V16.7h6.1a12.26,12.26,0,0,0,.71-1.29h-6V13h3.15a20.61,20.61,0,0,0-1.43-2.46l2.46-.92c.31.49.79,1.44,1.45,2.83l.28.55h1A25.92,25.92,0,0,0,74,9.29l2.78.21A31.88,31.88,0,0,1,76.15,13h1.54l.87-1.33c.65-.95,1.11-1.69,1.4-2.21l2.35,1.17c-.23.36-.8,1.15-1.72,2.37h3.33v2.42H75.39l-.24.58-.31.71h9.89v2.41H80.47a16.06,16.06,0,0,0,5.15,3L84.4,24.72a16.94,16.94,0,0,1-4-2.41l-.07,1.38a3.24,3.24,0,0,1-.35,1.44,1.64,1.64,0,0,1-.85.73,5.23,5.23,0,0,1-1.49.29l-2.3.18-.67-2.43Zm1.63-3.38c-.34-.36-.7-.78-1.08-1.27h-3.7c-.28.4-.6.82-1,1.27Z" transform="translate(-7.12 -9.29)"/></svg>